<svg width="209" height="209" viewBox="0 0 209 209" fill="none" xmlns="http://www.w3.org/2000/svg">
<path d="M69.8452 78.4948C69.8452 72.7148 69.8452 67.0723 69.8452 61.2923C69.8452 55.9251 66.9552 53.3103 61.7256 53.1726C57.3218 53.035 53.0555 53.1727 48.6517 53.0351C43.835 52.8974 39.1559 51.9341 39.1559 45.6035C39.1559 39.4106 43.2845 38.0344 48.3764 38.0344C53.1931 38.0344 58.0098 37.8968 62.8265 38.172C75.9005 38.8601 84.4329 47.5302 84.8458 60.6042C85.2587 72.5771 84.4329 84.5501 85.5339 96.3854C87.5982 118.267 99.7088 133.681 120.214 140.974C142.646 148.819 158.224 146.349 174.348 130.195C183.857 118.619 191.502 107.395 193.015 95.9725C194.116 87.1648 195.847 79.7566 182.617 68.1805C176.038 55.3033 180.819 57.5765 176.002 65.008C174.075 68.0356 175.862 61.7051 174.348 65.008C173.66 66.5218 173.519 62.2549 171.868 62.3925C173.956 57.851 170.076 59.772 169.8 58.2582C168.837 54.2672 168.971 61.5611 166.906 58.2582C162.365 50.8267 176.955 58.2646 168.56 60.6042C164.943 51.3064 167.458 50.5514 167.733 58.2582C168.974 68.0459 152.729 45.1907 165.253 53.0351C166.078 53.5855 156.571 57.4313 163.261 51.9012C164.913 53.2775 158.223 55.23 157.397 57.8447C156.434 60.8724 157.67 59.04 155.33 58.7648C156.984 52.1499 150.65 55.8947 151.609 60.6042C152.71 49.0441 142.927 54.1238 150.369 64.0462C160.691 59.9176 146.798 52.204 155.744 59.085C159.597 61.9751 156.851 61.1482 160.705 58.2582C168.147 68.594 181.376 55.3641 192.465 65.008C205.356 73.1417 204.666 80.7377 204.529 92.573C204.253 114.592 191.299 133.503 183.444 141.771C183.444 141.771 177.656 146.892 173.611 146.892C166.455 145.929 160.399 148.131 156.684 154.736C155.445 156.938 153.518 157.902 151.041 158.177C145.399 158.865 139.619 159.553 133.839 159.14C128.196 158.727 123.655 158.177 120.214 152.259C117.324 147.305 111.269 145.791 105.489 147.03C100.81 147.993 97.6445 146.342 94.3416 143.589C78.24 129.827 70.1204 112.349 69.8452 91.1558C69.8452 86.752 69.9828 82.6234 69.8452 78.4948C69.9828 78.4948 69.9828 78.4948 69.8452 78.4948Z" fill="#F6F6F6"/>
<path d="M117.324 162.581C117.462 168.086 113.471 172.077 107.966 171.939C102.324 171.939 98.6078 168.086 98.6078 162.443C98.7454 157.489 102.874 153.223 107.553 153.085C112.645 152.947 117.324 157.489 117.324 162.581Z" fill="#F6F6F6"/>
<path d="M180.217 162.856C180.079 168.086 175.675 172.214 170.308 171.939C165.629 171.664 160.95 166.985 161.363 162.443C161.913 156.663 165.629 154.186 170.996 153.911C175.813 153.773 180.217 158.315 180.217 162.856Z" fill="#F6F6F6"/>
<path d="M57.9543 113.996C48.425 113.987 38.9087 114.399 29.09 114.142C31.3344 116.131 32.7235 118.544 34.7086 120.495C37.2268 122.99 40.2514 123.645 43.6412 123.212C45.8154 122.934 47.8805 122.169 49.9749 121.589C51.1152 121.273 52.2612 121.144 53.4286 120.944C58.4255 120.111 62.1822 122.427 65.5237 125.739C68.2837 128.461 70.5175 131.62 73.2086 134.391C77.2826 138.616 81.9643 142.003 87.2993 144.505C87.5374 144.614 87.7996 144.746 88.037 144.833C88.1323 144.876 88.2715 144.825 88.5529 144.817C85.8381 142.795 83.4244 140.648 81.1926 138.307C75.0033 131.715 71.0068 123.932 68.3478 115.382C67.4857 112.554 66.6931 109.702 65.9937 106.822C64.9972 102.689 62.5164 99.8886 58.5938 98.2791C50.9862 95.1461 43.3997 91.9423 35.814 88.7619C24.7337 84.1458 13.6526 79.5063 2.5722 74.8902C2.42934 74.8245 2.2872 74.7821 2.14434 74.7164C2.07617 74.7886 1.98527 74.885 2.00944 74.9077C4.58656 80.8166 7.73832 86.3335 13.2303 90.1168C17.3312 92.9374 21.9608 94.642 26.7174 95.8982C36.0407 98.3464 45.1505 101.48 54.3674 104.282C55.0619 104.728 55.8855 104.796 56.6445 105.053C57.1434 105.249 57.7047 105.184 58.304 105.587C57.6585 105.209 57.0027 105.253 56.4562 105.036C55.6766 104.873 54.9367 104.475 54.0947 104.571C43.9331 102.336 33.7714 100.101 23.6091 97.8427C20.0878 97.0628 16.543 96.2837 12.8562 95.4622C13.9571 98.4225 15.4906 100.948 17.2784 103.349C20.2658 107.351 24.4037 109.094 29.1876 109.718C38.3538 110.884 47.5215 112.097 56.6884 113.287C57.8197 113.439 58.9268 113.568 60.0581 113.72C60.3233 113.946 60.6963 113.864 60.911 113.975C59.9914 113.839 58.9706 114.222 57.9543 113.996Z" fill="#F6F6F6"/>
<path d="M127.57 70.9234C138.38 47.0955 172.952 42.4859 190.99 59.5158C192.324 63.4546 190.257 67.1421 190.082 70.2891C190.529 68.1283 191.127 65.3849 191.392 62.5666C191.458 61.8207 191.352 60.8306 192.684 61.1303C195.801 63.3733 198.188 66.295 199.597 69.9013C200.151 79.3999 198.04 88.2991 194.098 96.8276C193.704 97.6639 193.232 98.7501 192.066 98.4465C190.984 98.2237 195.622 91.0805 195.433 90.0924C195.008 85.9669 198.087 85.1185 197.5 81.4103C197.044 78.5262 196.46 76.3892 192.066 72.3148C189.989 70.3891 192.604 66.9354 188.405 64.4596L175.009 66.8269C176.298 67.5312 172.497 65.6903 169.591 65.2267C158.286 63.4232 148.919 66.6197 141.846 75.8004C137.186 81.947 135.776 88.9276 136.862 96.4287C138.553 108.547 144.668 118.578 152.255 127.829C153.279 129.129 154.303 130.428 155.245 131.729C154.974 134.3 153.058 133.848 151.557 133.387C146.049 131.613 140.859 129.253 136.145 125.973C134.461 124.771 134.083 122.795 133.298 121.077C132.514 119.441 131.813 117.803 129.738 117.603C125.062 112.419 123.749 105.833 122.354 99.3318C121.16 90.758 123.236 75.6821 131.406 64.4596C134.179 81.4103 140.587 56.3029 141.846 57.0179C143.146 63.0252 131.152 89.5319 133.44 95.2681C133.698 95.6756 134.119 95.9966 134.133 96.5752C134.036 95.9985 133.53 95.5968 133.351 95.022C130.983 89.3705 129.766 83.3612 128.22 77.4423C128.167 75.2103 127.043 73.1689 127.57 70.9234Z" fill="#F6F6F6"/>
<path d="M201.23 72.427C207.352 82.788 207.199 93.9572 204.728 105.181C202.113 117.317 194.225 127.868 186.751 137.637C184.823 140.163 184.608 140.802 181.986 138.465C180.633 137.256 179.201 136.214 177.849 135.088C177.547 132.779 177.41 130.467 176.694 128.167C180.782 122.365 184.531 116.24 188.03 110.037C190.796 104.504 194.358 95.8689 193.779 88.8521C196.277 82.3424 198.048 81.5994 199.13 74.7093C199.351 73.5462 198.725 71.5758 201.23 72.427Z" fill="#F6F6F6"/>
<path d="M161.49 119.011C154.948 111.969 150.455 103.968 149.318 94.3178C148.586 87.8009 150.946 82.4524 156.503 79.2622C161.405 76.4182 166.126 76.546 170.822 78.9275C176.829 82.2372 179.207 86.9924 178.948 93.6251C178.344 103.234 171.743 100.731 167.64 105.872C169.522 104.919 165.869 108.064 167.64 105.872C164.666 106.19 170.132 106.228 167.64 105.872C168.425 104.034 170.569 107.21 167.64 105.872C167.17 107.041 179.207 86.9924 178.948 93.6251C178.344 103.234 173.723 111.307 168.147 119.011C164.839 123.58 163.586 120.12 161.49 119.011Z" fill="#F6F6F6"/>
<path d="M130.206 116.352C134.331 115.676 134.822 118.973 135.958 121.511C138.143 126.422 147.166 129.923 152.444 128.973C154.733 131.235 153.041 134.548 155.33 136.81C155.681 137.629 146.533 135.607 154.917 138.877C152.413 141.583 154.757 136.692 153.263 140.118C152.949 140.869 149.541 140.016 148.715 140.118C143.31 135.612 140.61 137.637 135.958 131.022C138.377 128.236 144.577 132.392 147.534 134.887C144.236 131.987 147.236 136.305 143.341 139.704C141.916 138.993 143.618 140.515 142.927 139.291C144.77 142.556 136.456 131.093 135.958 131.022C132.178 125.648 130.376 123.626 128.612 119.036C127.405 116.996 129.141 116.873 130.206 116.352Z" fill="#F6F6F6"/>
<path d="M195.579 96.5348C198.204 91.9245 191.688 93.6483 191.316 88.3636C191.2 86.9602 197.352 95.2527 196.091 94.4551C193.736 96.5779 194.34 99.4586 191.413 92.4968C192.018 82.9711 191.391 87.3906 191.526 89.6206C191.66 91.8506 191.632 94.1671 192.015 96.3913C196.288 87.8551 197.145 78.4889 199.42 69.5032C194.592 61.5006 202.94 74.8484 202.969 76.0984C205.214 80.1713 202.726 76.4462 202.428 77.8592C200.052 89.5767 201.812 93.9078 195.762 104.388C196.049 102.479 196.12 98.4245 195.579 96.5348Z" fill="#F6F6F6"/>
<path d="M130.206 116.352C131.915 118.628 129.003 119.287 129.284 120.686C125.909 114.479 122.587 105.053 122.256 97.9476C124.299 103.855 125.947 111.323 130.206 116.352Z" fill="#F6F6F6"/>
<path d="M176.694 128.168C180.461 129.899 179.608 132.4 177.849 135.088C174.577 133.262 173.448 131.056 176.694 128.168Z" fill="#F6F6F6"/>
<path d="M139.513 135.405C139.697 132.672 141.718 130.557 143.705 130.51C146.353 130.448 149.204 131.953 151.561 133.552C152.402 134.112 152.09 134.946 151.361 135.625C150.144 136.728 148.928 137.832 147.709 138.853C146.733 139.62 144.999 139.826 145.216 138.498C145.703 134.516 143.645 135.061 141.091 135.617C140.679 135.709 140.094 135.475 139.513 135.405Z" fill="#F6F6F6"/>
<path d="M192.813 123.325C193.863 122.225 194.914 121.125 196.129 119.939C195.423 121.609 194.119 122.55 192.813 123.325Z" fill="#F6F6F6"/>
<path d="M169.7 105.338C169.956 105.663 170.212 105.988 170.551 106.311C166.188 107.405 161.901 108.25 157.696 105.536C161.7 106.766 165.668 106.425 169.7 105.338Z" fill="#F6F6F6"/>
<path d="M133.94 95.4217C135.301 96.9614 135.759 98.853 136.74 101.808C134.283 99.4664 133.99 97.571 133.696 95.5929C133.698 95.6755 133.94 95.4217 133.94 95.4217Z" fill="#F6F6F6"/>
<path d="M135.528 95.8709C130.079 89.2842 128.011 82.132 127.155 74.5623C130.035 81.5982 133.051 88.631 135.931 95.6669L135.528 95.8709Z" fill="#F6F6F6"/>
<path d="M136.267 131.18C136.415 130.433 136.392 129.441 137.468 129.416C138.213 129.398 138.808 130.046 138.74 130.709C138.683 131.786 137.687 131.726 136.864 131.911C136.694 131.749 136.523 131.505 136.267 131.18Z" fill="#F6F6F6"/>
<path d="M129.369 83.4955C130.41 85.5389 130.216 87.8593 130.266 90.0086C129.25 89.0398 129.373 87.2173 127.706 86.7601C127.759 85.5182 128.479 84.4261 129.369 83.4955Z" fill="#F6F6F6"/>
<path d="M161.317 118.84C155.745 112.893 173.521 112.418 168.147 118.839C165.666 122.754 164.434 122.628 161.317 118.84Z" fill="#F6F6F6"/>
<path d="M206.175 89.2568C205.047 94.163 190.619 71.191 189.491 76.0971C189.326 76.101 189.075 76.0241 188.91 76.028C189.612 70.6355 186.912 62.3305 187.616 57.0207C185.484 55.3191 205.644 66.5243 206.175 89.2568Z" fill="#F6F6F6"/>
<path d="M199.741 69.9413C187.024 47.8085 153.645 42.673 136.047 60.1597C134.814 64.1316 136.975 67.7651 137.23 70.9068C136.729 68.758 136.06 66.0307 135.723 63.2199C135.638 62.4759 135.719 61.4835 134.395 61.8172C131.337 64.1393 129.025 67.1212 127.708 70.7625C127.398 80.2726 129.736 89.1153 133.895 97.5405C134.31 98.3665 134.81 99.4404 135.968 99.107C137.044 98.8566 133.731 92.9866 133.895 91.9939C134.214 87.8587 132.591 89.1012 133.083 85.379C133.465 82.484 128.303 82.702 132.591 78.5163C134.618 76.538 131.589 74.6213 135.723 72.0387L140.447 64.4596C139.176 65.1967 154.692 65.8593 157.586 65.3214C168.842 63.2292 178.288 66.1851 185.594 75.1822C190.41 81.2079 191.998 88.1504 191.104 95.6772C189.724 107.836 183.867 118.02 176.519 127.463C175.529 128.788 174.538 130.113 173.63 131.438C173.967 134.001 175.87 133.5 177.36 133.001C182.82 131.087 187.948 128.595 192.577 125.194C194.23 123.95 194.557 121.965 195.298 120.227C196.04 118.571 196.699 116.916 198.768 116.664C203.31 111.361 204.455 104.744 205.682 98.2083C206.657 89.6063 203.974 73.1469 197.334 66.1329C193.689 65.066 200.416 75.8935 199.176 76.6405C198.03 82.6794 196.636 88.6362 194.496 94.4293C194.249 94.8433 193.835 95.175 193.837 95.7538C193.918 95.1748 194.414 94.7602 194.578 94.181C196.801 88.4705 197.864 82.4317 199.259 76.4749C199.254 74.2423 200.325 72.1726 199.741 69.9413Z" fill="#F6F6F6"/>
<path d="M154.025 130.109C157.155 133.37 157.278 138.306 154.176 141.089C151.45 143.494 145.459 142.669 142.901 139.676C139.66 135.853 140.74 132.848 143.504 129.729C146.052 126.997 151.242 127.342 154.025 130.109Z" fill="#F6F6F6"/>
</svg>
